<svg id="visual" viewBox="0 0 900 600" width="900" height="600" xmlns="http://www.w3.org/2000/svg" xmlns:xlink="http://www.w3.org/1999/xlink" version="1.1"><rect x="0" y="0" width="900" height="600" fill="#fff"></rect><path d="M0 232L8.3 255.3C16.7 278.7 33.3 325.3 50 357.5C66.7 389.7 83.3 407.3 100 382.7C116.7 358 133.3 291 150 258.2C166.7 225.3 183.3 226.7 200 248.5C216.7 270.3 233.3 312.7 250 332.7C266.7 352.7 283.3 350.3 300 356.3C316.7 362.3 333.3 376.7 350 369.8C366.7 363 383.3 335 400 316.2C416.7 297.3 433.3 287.7 450 276C466.7 264.3 483.3 250.7 500 241.5C516.7 232.3 533.3 227.7 550 232.7C566.7 237.7 583.3 252.3 600 286.7C616.7 321 633.3 375 650 401.7C666.7 428.3 683.3 427.7 700 406.2C716.7 384.7 733.3 342.3 750 324.3C766.7 306.3 783.3 312.7 800 304.7C816.7 296.7 833.3 274.3 850 275.3C866.7 276.3 883.3 300.7 891.7 312.8L900 325L900 601L891.7 601C883.3 601 866.7 601 850 601C833.3 601 816.7 601 800 601C783.3 601 766.7 601 750 601C733.3 601 716.7 601 700 601C683.3 601 666.7 601 650 601C633.3 601 616.7 601 600 601C583.3 601 566.7 601 550 601C533.3 601 516.7 601 500 601C483.3 601 466.7 601 450 601C433.3 601 416.7 601 400 601C383.3 601 366.7 601 350 601C333.3 601 316.7 601 300 601C283.3 601 266.7 601 250 601C233.3 601 216.7 601 200 601C183.3 601 166.7 601 150 601C133.3 601 116.7 601 100 601C83.3 601 66.7 601 50 601C33.3 601 16.7 601 8.3 601L0 601Z" fill="#79c257" stroke-linecap="round" stroke-linejoin="miter"></path></svg>